<svg xmlns="http://www.w3.org/2000/svg" viewBox="0 0 217 217" xmlns:xlink="http://www.w3.org/1999/xlink" version="1.1"> <!-- Generator: Sketch 46.2 (44496) - http://www.bohemiancoding.com/sketch --> <desc>Created with Sketch.</desc> <defs/> <g id="Page-1" fill="none" fill-rule="evenodd" stroke="none" stroke-width="1"> <g id="Build-your-dream-business-(blue-edition-with-blue-imagery)" transform="translate(-1049 -5422)"> <circle id="Oval-2" fill="#62af53" cx="1157.5" cy="5530.5" r="108.5"/> <g id="02_venture_capital" transform="translate(1078 5457)"> <ellipse id="decorative-disc" opacity="0.196187" fill="#ffffff" fill-rule="nonzero" cx="50" cy="75" rx="50" ry="50.8064"/> <g id="Group" stroke="#ffffff" stroke-width="4.8"> <path id="Shape" d="M 30.9524 96.7742 L 52.381 96.7742 L 78.5714 106.452 L 100 106.452 C 103.943 106.452 107.143 109.701 107.143 113.71 C 107.143 117.719 103.943 120.968 100 120.968 L 73.8095 120.968 C 69.8667 120.968 66.6667 124.217 66.6667 128.226"/> <path id="Shape" d="M 104.762 118.548 L 142.857 106.452 C 146.8 106.452 150 109.701 150 113.71 C 150 116.122 147.619 118.548 147.619 118.548 L 88.0952 150 L 83.3333 150 L 42.8571 135.484 L 33.3333 135.484"/> <path id="Shape" d="M 23.8095 130.645 L 19.0476 130.645"/> <path id="Shape" d="M 14.2857 130.645 L 9.52381 130.645"/> <path id="Shape" d="M 0 91.9355 L 28.5714 91.9355 C 29.8881 91.9355 30.9524 93.0169 30.9524 94.3548 L 30.9524 137.903 C 30.9524 139.241 29.8881 140.323 28.5714 140.323 L 0 140.323"/> <path id="Shape" d="M 80.9524 77.4194 C 80.9524 81.4258 84.1524 84.6774 88.0952 84.6774 C 92.0381 84.6774 95.2381 81.4258 95.2381 77.4194 C 95.2381 73.4129 88.0952 70.1613 88.0952 70.1613 C 88.0952 70.1613 80.9524 66.9097 80.9524 62.9032 C 80.9524 58.8968 84.1524 55.6452 88.0952 55.6452 C 92.0381 55.6452 95.2381 58.8968 95.2381 62.9032"/> <path id="Shape" d="M 88.0952 55.6452 L 88.0952 48.3871"/> <path id="Shape" d="M 88.0952 84.6774 L 88.0952 91.9355"/> <path id="Shape" d="M 102.381 70.1613 L 107.143 70.1613"/> <path id="Shape" d="M 69.0476 70.1613 L 73.8095 70.1613"/> <polygon id="Shape" points="107.143,4.83871 97.619,0 88.0952,4.83871 78.5714,0 69.0476,4.83871 78.5714,24.1935 97.619,24.1935"/> <path id="Shape" d="M 97.619 33.871 C 105.507 33.871 130.952 43.5484 130.952 84.6774 L 130.952 104.032"/> <path id="Shape" d="M 45.2381 89.5161 L 45.2381 84.6774 C 45.2381 41.129 70.6833 33.871 78.5714 33.871"/> <path id="Shape" d="M 102.381 29.0323 C 102.381 31.7032 100.248 33.871 97.619 33.871 L 78.5714 33.871 C 75.9429 33.871 73.8095 31.7032 73.8095 29.0323 L 73.8095 29.0323 C 73.8095 26.3613 75.9429 24.1935 78.5714 24.1935 L 97.619 24.1935 C 100.248 24.1935 102.381 26.3613 102.381 29.0323 L 102.381 29.0323 Z"/> </g> </g> </g> </g> </svg>