<svg xmlns="http://www.w3.org/2000/svg" viewBox="0 0 217 217" xmlns:xlink="http://www.w3.org/1999/xlink" version="1.1"> <defs/> <g id="Page-1" fill="none" fill-rule="evenodd" stroke="none" stroke-width="1"> <g id="Build-your-dream-business-(blue-edition-with-blue-imagery)" transform="translate(-756 -5422)"> <circle id="Oval-2" fill="#6033b6" cx="864.5" cy="5530.5" r="108.5"/> <g id="Group-2" transform="translate(790 5460)"> <g id="09_team_leader"> <ellipse id="decorative-disc" opacity="0.2" fill="#ffffff" fill-rule="nonzero" cx="50.8064" cy="90.8136" rx="50.8064" ry="50.1864"/> <g id="Group" stroke="#ffffff" stroke-width="4.8"> <path id="Shape" d="M 137.903 44.2119 C 137.903 52.5763 133.154 59.7458 125.806 59.7458 C 118.459 59.7458 113.71 52.5763 113.71 44.2119 C 113.71 35.8475 116.129 31.0678 125.806 31.0678 C 135.484 31.0678 137.903 35.8475 137.903 44.2119 Z"/> <path id="Shape" d="M 106.452 64.5254 L 118.548 57.3559"/> <path id="Shape" d="M 133.065 57.3559 L 150 66.9153 C 150 66.9153 150 67.7374 150 71.6949 C 150 75.6525 147.581 78.8644 145.161 78.8644 L 130.645 78.8644"/> <path id="Shape" d="M 12.0968 44.2119 C 12.0968 52.5763 16.846 59.7458 24.1935 59.7458 C 31.5411 59.7458 36.2903 52.5763 36.2903 44.2119 C 36.2903 35.8475 33.871 31.0678 24.1935 31.0678 C 14.5161 31.0678 12.0968 35.8475 12.0968 44.2119 Z"/> <path id="Shape" d="M 43.5484 64.5254 L 31.4516 57.3559"/> <path id="Shape" d="M 16.9355 57.3559 L 0 66.9153 C 0 66.9153 0 67.7374 0 71.6949 C 0 75.6525 2.41935 78.8644 4.83871 78.8644 L 19.3548 78.8644"/> <path id="Shape" d="M 21.7742 121.881 L 21.7742 100.373 C 21.7742 76.4746 38.7097 78.8644 55.6452 69.3051"/> <path id="Shape" d="M 94.3548 69.3051 C 111.29 78.8644 128.226 76.4746 128.226 100.373 L 128.226 121.881"/> <polygon id="Shape" points="84.6774,78.8644 75,74.0847 65.3226,78.8644 55.6452,69.3051 60.4839,62.1356 75,64.5254 89.5161,62.1356 94.3548,69.3051"/> <path id="Shape" d="M 87.0968 52.5763 L 87.0968 62.1356"/> <path id="Shape" d="M 62.9032 62.1356 L 62.9032 52.5763"/> <path id="Shape" d="M 72.5806 95.5932 L 77.4194 95.5932"/> <path id="Shape" d="M 72.5806 86.0339 L 77.4194 86.0339"/> <path id="Shape" d="M 96.7742 21.5085 C 96.7742 6.99025 89.6976 0 75 0 C 60.3024 0 53.2258 6.99025 53.2258 21.5085 L 53.2258 31.0678 C 55.6452 47.7966 62.9032 52.5763 62.9032 52.5763 C 67.7419 54.9661 75 54.9661 75 54.9661 C 75 54.9661 82.2581 54.9661 87.0968 52.5763 C 87.0968 52.5763 94.3548 47.7966 96.7742 31.0678 L 96.7742 21.5085 Z"/> <polyline id="Shape" points="53.2258,21.5085 62.9032,16.7288 75,21.5085 87.0968,26.2881 96.7742,21.5085"/> <path id="Shape" d="M 41.129 121.881 L 41.129 102.763"/> <path id="Shape" d="M 108.871 121.881 L 108.871 102.763"/> </g> </g> </g> </g> </g> </svg>