<svg xmlns="http://www.w3.org/2000/svg" viewBox="0 0 217 217" xmlns:xlink="http://www.w3.org/1999/xlink" version="1.1"> <defs/> <g id="Page-1" fill="none" fill-rule="evenodd" stroke="none" stroke-width="1"> <g id="Build-your-dream-business-(blue-edition-with-blue-imagery)" transform="translate(-756 -5755)"> <circle id="Oval-2" fill="#f7c532" cx="864.5" cy="5863.5" r="108.5"/> <g id="Group-2" transform="translate(770 5769)"> <g id="15_communication_nodes"> <circle id="decorative-disc" opacity="0.2" fill="#ffffff" fill-rule="nonzero" cx="60" cy="60" r="60"/> <g id="Group" stroke="#ffffff" stroke-width="4.8" transform="translate(21 21)"> <path id="Shape" d="M 150 75 L 0 75"/> <circle id="Oval" cx="75" cy="75" r="75"/> <path id="Shape" d="M 42.9339 99.2177 C 41.7653 91.6185 41.129 83.475 41.129 75 C 41.129 33.5782 56.2935 0 75 0 C 87.3145 0 98.0927 14.5476 104.02 36.3048"/> <path id="Shape" d="M 107.066 50.7823 C 108.237 58.379 108.871 66.525 108.871 75 C 108.871 116.422 93.7065 150 75 150 C 62.6879 150 51.9121 135.457 45.9823 113.71"/> <path id="Shape" d="M 36.3048 104.02 C 14.5476 98.0927 0 87.3145 0 75 C 0 56.2935 33.5782 41.129 75 41.129 C 83.4774 41.129 91.6282 41.7653 99.2298 42.9339"/> <path id="Shape" d="M 113.695 45.9798 C 135.452 51.9073 150 62.6855 150 75 C 150 93.7065 116.422 108.871 75 108.871 C 66.525 108.871 58.3766 108.235 50.7774 107.066"/> <circle id="Oval" cx="106.452" cy="43.5484" r="7.25806"/> <circle id="Oval" cx="43.5484" cy="106.452" r="7.25806"/> <path id="Shape" d="M 62.9032 60.4839 L 67.7419 60.4839"/> <path id="Shape" d="M 72.5806 60.4839 L 77.4194 60.4839"/> <path id="Shape" d="M 82.2581 60.4839 L 87.0968 60.4839"/> <path id="Shape" d="M 62.9032 89.5161 L 67.7419 89.5161"/> <path id="Shape" d="M 72.5806 89.5161 L 77.4194 89.5161"/> <path id="Shape" d="M 82.2581 89.5161 L 87.0968 89.5161"/> </g> </g> </g> </g> </g> </svg>