<svg xmlns="http://www.w3.org/2000/svg" viewBox="0 0 217 217" xmlns:xlink="http://www.w3.org/1999/xlink" version="1.1"> <defs/> <g id="Page-1" fill="none" fill-rule="evenodd" stroke="none" stroke-width="1"> <g id="Build-your-dream-business-(blue-edition-with-blue-imagery)" transform="translate(-170 -5755)"> <circle id="Oval-2" fill="#c7270e" cx="278.5" cy="5863.5" r="108.5"/> <g id="Group-2" transform="translate(181 5775)"> <g id="07_law_scales"> <circle id="decorative-disc" opacity="0.2" fill="#ffffff" fill-rule="nonzero" cx="63" cy="63" r="63"/> <g id="Group" stroke="#ffffff" stroke-width="4.8" transform="translate(21 1)"> <polyline id="Shape" points="65.3226,43.5484 65.3226,135.484 84.6774,135.484 84.6774,43.5484"/> <path id="Shape" d="M 84.6774 24.1935 L 84.6774 9.67742 C 84.6774 4.33306 80.3444 0 75 0 C 69.6556 0 65.3226 4.33306 65.3226 9.67742 L 65.3226 24.1935"/> <path id="Shape" d="M 58.0645 135.484 L 21.7742 135.484 C 13.7565 135.484 7.25806 141.985 7.25806 150 L 142.742 150 C 142.742 141.985 136.241 135.484 128.226 135.484 L 91.9355 135.484"/> <path id="Shape" d="M 75 7.25806 L 75 12.0968"/> <circle id="Oval" cx="75" cy="33.871" r="14.5161"/> <path id="Shape" d="M 135.484 38.7097 L 145.161 38.7097 C 147.832 38.7097 150 36.5419 150 33.871 C 150 31.2 147.832 29.0323 145.161 29.0323 L 89.5161 29.0323"/> <path id="Shape" d="M 89.5161 38.7097 L 120.968 38.7097"/> <path id="Shape" d="M 14.5161 38.7097 L 4.83871 38.7097 C 2.16532 38.7097 0 36.5419 0 33.871 C 0 31.2 2.16532 29.0323 4.83871 29.0323 L 60.4839 29.0323"/> <path id="Shape" d="M 60.4839 38.7097 L 29.0323 38.7097"/> <path id="Shape" d="M 0 82.2581 L 43.5484 82.2581 C 43.5484 94.2847 33.8008 104.032 21.7742 104.032 C 9.74758 104.032 0 94.2847 0 82.2581 Z"/> <path id="Shape" d="M 2.41935 82.2581 L 21.7742 38.7097"/> <path id="Shape" d="M 21.7742 38.7097 L 41.129 82.2581"/> <path id="Shape" d="M 106.452 82.2581 L 150 82.2581 C 150 94.2847 140.252 104.032 128.226 104.032 C 116.199 104.032 106.452 94.2847 106.452 82.2581 Z"/> <path id="Shape" d="M 108.871 82.2581 L 128.226 38.7097"/> <path id="Shape" d="M 128.226 38.7097 L 147.581 82.2581"/> <path id="Shape" d="M 72.5806 125.806 L 77.4194 125.806"/> <path id="Shape" d="M 72.5806 116.129 L 77.4194 116.129"/> <path id="Shape" d="M 72.5806 106.452 L 77.4194 106.452"/> </g> </g> </g> </g> </g> </svg>