<svg xmlns="http://www.w3.org/2000/svg" viewBox="0 0 217 217" xmlns:xlink="http://www.w3.org/1999/xlink" version="1.1"> <defs/> <g id="Page-1" fill="none" fill-rule="evenodd" stroke="none" stroke-width="1"> <g id="Build-your-dream-business-(blue-edition-with-blue-imagery)" transform="translate(-1049 -5755)"> <circle id="Oval-2" fill="#4a4a4a" cx="1157.5" cy="5863.5" r="108.5"/> <g id="Group-2" transform="translate(1087 5779)"> <g id="13_shipping_van"> <circle id="decorative-disc" opacity="0.2" fill="#ffffff" fill-rule="nonzero" cx="102.797" cy="50.2031" r="50.2031"/> <g id="Group" stroke="#ffffff" stroke-width="4.8" transform="translate(0 31.0781)"> <polyline id="Shape" points="14.3438,93.2344 2.39063,93.2344 2.39063,0 98.0156,0 98.0156,93.2344 52.5938,93.2344"/> <path id="Shape" d="M 90.8438 64.5469 L 19.125 64.5469"/> <path id="Shape" d="M 90.8438 74.1094 L 52.5938 74.1094"/> <polyline id="Shape" points="2.39063,38.25 62.1563,38.25 62.1563,47.8125 83.6719,31.0781 62.1563,14.3438 62.1563,23.9063 2.39063,23.9063"/> <rect id="Rectangle-path" x="2.39063" y="64.5469" width="9.5625" height="14.3438"/> <rect id="Rectangle-path" x="141.047" y="74.1094" width="9.5625" height="9.5625"/> <circle id="Oval" cx="33.4688" cy="105.188" r="14.3438"/> <circle id="Oval" cx="33.4688" cy="105.188" r="2.39063"/> <circle id="Oval" cx="124.313" cy="105.188" r="14.3438"/> <circle id="Oval" cx="124.313" cy="105.188" r="2.39063"/> <polyline id="Shape" points="105.188,93.2344 98.0156,93.2344 98.0156,31.0781 129.094,31.0781 150.609,64.5469 150.609,93.2344 143.438,93.2344"/> <path id="Shape" d="M 107.578 64.5469 L 150.609 64.5469"/> <polyline id="Shape" points="133.875,40.6406 107.578,40.6406 107.578,86.0625"/> <path id="Shape" d="M 119.531 74.1094 L 114.75 74.1094"/> <path id="Shape" d="M 0 119.531 L 153 119.531"/> <path id="Shape" d="M 50.2031 47.8125 L 45.4219 47.8125"/> <path id="Shape" d="M 40.6406 47.8125 L 35.8594 47.8125"/> <path id="Shape" d="M 31.0781 47.8125 L 26.2969 47.8125"/> </g> </g> </g> </g> </g> </svg>