<svg xmlns="http://www.w3.org/2000/svg" viewBox="0 0 217 217" xmlns:xlink="http://www.w3.org/1999/xlink" version="1.1"> <defs/> <g id="Page-1" fill="none" fill-rule="evenodd" stroke="none" stroke-width="1"> <g id="Build-your-dream-business-(blue-edition-with-blue-imagery)" transform="translate(-170 -5422)"> <circle id="Oval-2" fill="#f0751f" cx="278.5" cy="5530.5" r="108.5"/> <ellipse id="decorative-disc" opacity="0.2" fill="#ffffff" fill-rule="nonzero" cx="249.813" cy="5566.2" rx="47.8125" ry="47.7966"/> <g id="Group" stroke="#ffffff" stroke-width="4.8" transform="translate(199 5457)"> <path id="Shape" d="M 76.5 105.153 L 76.5 138.61"/> <polyline id="Shape" points="102.797,105.153 114.75,136.22 114.75,138.61"/> <polyline id="Shape" points="50.2031,105.153 38.25,136.22 38.25,138.61"/> <polyline id="Shape" points="141.047,26.2881 141.047,95.5932 11.9531,95.5932 11.9531,26.2881"/> <polygon id="Shape" points="2.39063,19.1186 2.39063,9.55932 59.7656,9.55932 64.5469,0 88.4531,0 93.2344,9.55932 150.609,9.55932 150.609,19.1186"/> <path id="Shape" d="M 45.4219 45.4068 C 36.1797 45.4068 28.6875 52.8965 28.6875 62.1356 C 28.6875 71.3747 36.1797 78.8644 45.4219 78.8644 C 54.664 78.8644 62.1563 71.3747 62.1563 62.1356 L 45.4219 62.1356 L 45.4219 45.4068 Z"/> <path id="Shape" d="M 54.9844 35.8475 L 54.9844 52.5763 L 71.7188 52.5763 C 71.7188 43.3372 64.2265 35.8475 54.9844 35.8475 Z"/> <path id="Shape" d="M 69.3281 9.55932 L 83.6719 9.55932"/> <path id="Shape" d="M 83.6719 52.5763 L 126.703 52.5763"/> <path id="Shape" d="M 83.6719 62.1356 L 126.703 62.1356"/> <path id="Shape" d="M 83.6719 71.6949 L 126.703 71.6949"/> <path id="Shape" d="M 93.2344 40.6271 L 98.0156 40.6271"/> <path id="Shape" d="M 102.797 40.6271 L 107.578 40.6271"/> <path id="Shape" d="M 112.359 40.6271 L 117.141 40.6271"/> <path id="Shape" d="M 0 138.61 L 153 138.61"/> <polyline id="Shape" points="141.047,95.5932 141.047,105.153 11.9531,105.153 11.9531,95.5932"/> </g> </g> </g> </svg>