<svg xmlns="http://www.w3.org/2000/svg" viewBox="0 0 217 217" xmlns:xlink="http://www.w3.org/1999/xlink" version="1.1"> <defs/> <g id="Page-1" fill="none" fill-rule="evenodd" stroke="none" stroke-width="1"> <g id="Build-your-dream-business-(blue-edition-with-blue-imagery)" transform="translate(-463 -5755)"> <circle id="Oval-2" fill="#85592b" cx="571.5" cy="5863.5" r="108.5"/> <g id="Group-2" transform="translate(499 5779)"> <g id="03_office_building"> <ellipse id="decorative-disc" opacity="0.2" fill="#ffffff" fill-rule="nonzero" cx="50.6066" cy="50" rx="50.6066" ry="50"/> <g id="Group" stroke="#ffffff" stroke-width="4.8" transform="translate(2.40984)"> <polyline id="Shape" points="48.1967,119.048 48.1967,21.4286 96.3934,21.4286 96.3934,119.048"/> <path id="Shape" d="M 7.22951 116.667 L 21.6885 116.667"/> <path id="Shape" d="M 26.5082 116.667 L 40.9672 116.667"/> <path id="Shape" d="M 7.22951 107.143 L 21.6885 107.143"/> <path id="Shape" d="M 26.5082 107.143 L 40.9672 107.143"/> <path id="Shape" d="M 7.22951 97.619 L 21.6885 97.619"/> <path id="Shape" d="M 26.5082 97.619 L 40.9672 97.619"/> <path id="Shape" d="M 7.22951 88.0952 L 40.9672 88.0952"/> <path id="Shape" d="M 7.22951 78.5714 L 21.6885 78.5714"/> <path id="Shape" d="M 26.5082 78.5714 L 40.9672 78.5714"/> <path id="Shape" d="M 103.623 116.667 L 118.082 116.667"/> <path id="Shape" d="M 122.902 116.667 L 137.361 116.667"/> <path id="Shape" d="M 103.623 107.143 L 118.082 107.143"/> <path id="Shape" d="M 122.902 107.143 L 137.361 107.143"/> <path id="Shape" d="M 103.623 97.619 L 137.361 97.619"/> <path id="Shape" d="M 103.623 88.0952 L 118.082 88.0952"/> <path id="Shape" d="M 122.902 88.0952 L 137.361 88.0952"/> <path id="Shape" d="M 103.623 78.5714 L 118.082 78.5714"/> <path id="Shape" d="M 122.902 78.5714 L 137.361 78.5714"/> <path id="Shape" d="M 103.623 69.0476 L 118.082 69.0476"/> <path id="Shape" d="M 122.902 69.0476 L 137.361 69.0476"/> <path id="Shape" d="M 103.623 59.5238 L 118.082 59.5238"/> <path id="Shape" d="M 122.902 59.5238 L 137.361 59.5238"/> <path id="Shape" d="M 55.4262 116.667 L 89.1639 116.667"/> <path id="Shape" d="M 55.4262 107.143 L 69.8852 107.143"/> <path id="Shape" d="M 74.7049 107.143 L 89.1639 107.143"/> <path id="Shape" d="M 55.4262 97.619 L 69.8852 97.619"/> <path id="Shape" d="M 74.7049 97.619 L 89.1639 97.619"/> <path id="Shape" d="M 55.4262 88.0952 L 69.8852 88.0952"/> <path id="Shape" d="M 74.7049 88.0952 L 89.1639 88.0952"/> <path id="Shape" d="M 55.4262 78.5714 L 69.8852 78.5714"/> <path id="Shape" d="M 74.7049 78.5714 L 89.1639 78.5714"/> <path id="Shape" d="M 55.4262 69.0476 L 89.1639 69.0476"/> <path id="Shape" d="M 55.4262 59.5238 L 69.8852 59.5238"/> <path id="Shape" d="M 74.7049 59.5238 L 89.1639 59.5238"/> <path id="Shape" d="M 55.4262 50 L 69.8852 50"/> <path id="Shape" d="M 74.7049 50 L 89.1639 50"/> <path id="Shape" d="M 55.4262 40.4762 L 69.8852 40.4762"/> <path id="Shape" d="M 74.7049 40.4762 L 89.1639 40.4762"/> <path id="Shape" d="M 55.4262 30.9524 L 69.8852 30.9524"/> <path id="Shape" d="M 74.7049 30.9524 L 89.1639 30.9524"/> <rect id="Rectangle-path" x="9.63934" y="59.5238" width="28.918" height="9.52381"/> <rect id="Rectangle-path" x="106.033" y="40.4762" width="28.918" height="9.52381"/> <rect id="Rectangle-path" x="57.8361" y="11.9048" width="28.918" height="9.52381"/> <path id="Shape" d="M 72.2951 11.9048 L 72.2951 0"/> <polyline id="Shape" points="9.63934,150 0,150 0,69.0476 48.1967,69.0476"/> <polyline id="Shape" points="96.3934,50 144.59,50 144.59,150 134.951,150"/> <rect id="Rectangle-path" x="9.63934" y="126.19" width="125.311" height="23.8095"/> <path id="Shape" d="M 48.1967 133.333 L 48.1967 150"/> <path id="Shape" d="M 96.3934 133.333 L 96.3934 150"/> <path id="Shape" d="M 9.63934 140.476 L 134.951 140.476"/> </g> </g> </g> </g> </g> </svg>