<svg xmlns="http://www.w3.org/2000/svg" viewBox="0 0 217 217" xmlns:xlink="http://www.w3.org/1999/xlink" version="1.1"> <defs/> <g id="Page-1" fill="none" fill-rule="evenodd" stroke="none" stroke-width="1"> <g id="Build-your-dream-business-(blue-edition-with-blue-imagery)" transform="translate(-463 -5422)"> <circle id="Oval-2" fill="#2c57f9" cx="571.5" cy="5530.5" r="108.5"/> <g id="Group-2" transform="translate(495 5451)"> <g id="08_market_trends"> <circle id="decorative-disc" opacity="0.2" fill="#ffffff" fill-rule="nonzero" cx="102.797" cy="50.2031" r="50.2031"/> <g id="Group" stroke="#ffffff" stroke-width="4.8"> <path id="Shape" d="M 11.9531 0 L 11.9531 153"/> <path id="Shape" d="M 0 141.047 L 153 141.047"/> <path id="Shape" d="M 26.2969 107.578 L 40.6406 93.2344"/> <path id="Shape" d="M 21.5156 133.875 L 21.5156 129.094"/> <path id="Shape" d="M 31.0781 133.875 L 31.0781 129.094"/> <path id="Shape" d="M 40.6406 133.875 L 40.6406 129.094"/> <path id="Shape" d="M 50.2031 133.875 L 50.2031 129.094"/> <path id="Shape" d="M 59.7656 133.875 L 59.7656 129.094"/> <path id="Shape" d="M 69.3281 133.875 L 69.3281 129.094"/> <path id="Shape" d="M 78.8906 133.875 L 78.8906 129.094"/> <path id="Shape" d="M 88.4531 133.875 L 88.4531 129.094"/> <path id="Shape" d="M 98.0156 133.875 L 98.0156 129.094"/> <path id="Shape" d="M 107.578 133.875 L 107.578 129.094"/> <path id="Shape" d="M 117.141 133.875 L 117.141 129.094"/> <path id="Shape" d="M 126.703 133.875 L 126.703 129.094"/> <path id="Shape" d="M 136.266 133.875 L 136.266 129.094"/> <path id="Shape" d="M 145.828 133.875 L 145.828 129.094"/> <polyline id="Shape" points="54.9844,78.8906 66.9375,66.9375 100.406,66.9375 145.828,21.5156"/> <polyline id="Shape" points="23.9063,26.2969 54.9844,26.2969 69.3281,40.6406 83.6719,26.2969 95.625,26.2969 112.359,43.0313"/> <path id="Shape" d="M 124.313 54.9844 L 145.828 76.5"/> <polyline id="Shape" points="133.875,76.5 145.828,76.5 145.828,64.5469"/> <polyline id="Shape" points="145.828,33.4688 145.828,21.5156 133.875,21.5156"/> <polyline id="Shape" points="136.266,114.75 145.828,105.188 136.266,95.625"/> <polyline id="Shape" points="145.828,105.188 105.188,105.188 90.8438,90.8438 71.7188,109.969 26.2969,64.5469"/> </g> </g> </g> </g> </g> </svg>